# xmcd
#
# Track frame offsets: 
#        183
#        23443
#        49293
#        74155
#        97308
#        122625
#        147303
#        172770
#
# Disc length: 2606 seconds
#
# Revision: 0
# Processed by: cddbd v1.5.2PL0 Copyright (c) Steve Scherf et al.
# Submitted via: ExactAudioCopy v0.95b4
#
DISCID=710a2c08
DTITLE=Jones, Glenn - Finesse
DYEAR=1900
DGENRE=Soul
TTITLE0=Finesse
TTITLE1=You're The Only One I Love
TTITLE2=Show Me
TTITLE3=It Hurts Too Much
TTITLE4=Meet Me Half Way There
TTITLE5=Bring Back Your Love
TTITLE6=Everlasting Love
TTITLE7=On The Floor
EXTD=
EXTT0=
EXTT1=
EXTT2=
EXTT3=
EXTT4=
EXTT5=
EXTT6=
EXTT7=
PLAYORDER=
